#!OML:ASF H:\Punching\Project 1\Capture day 1\Session 1\female.ASF
:FULLY-SPECIFIED
:DEGREES
471
root -1.63306 15.9014 2.1368 -169.044 27.0603 -179.163
lowerback -6.10686 -1.21508 5.00266
upperback -5.5125 -1.40636 1.85171
thorax -2.36952 -0.662948 -0.95002
lowerneck -9.86635 1.58003 12.5732
upperneck 43.1252 7.72521 -6.61448
head 18.7556 6.15015 -3.46301
rclavicle 4.06018e-014 4.77083e-015
rhumerus -40.8012 -0.763314 -75.0425
rradius 31.273
rwrist 2.85689
rhand -14.8206 -3.455
rfingers 7.12502
rthumb 11.3378 -33.1285
lclavicle 4.06018e-014 4.77083e-015
lhumerus -42.2746 4.66235 81.007
lradius 41.3057
lwrist -13.3623
lhand -6.90824 13.8359
lfingers 7.12502
lthumb 18.9591 42.9319
rfemur -17.132 6.87088 25.4815
rtibia 22.5791
rfoot -14.8683 -11.355
rtoes 3.33544
lfemur -30.2006 -1.79407 -15.2484
ltibia 60.2129
lfoot -7.73023 8.3071
ltoes -1.88121
472
root -1.58717 15.893 2.04951 -168.972 27.9837 -179.113
lowerback -6.09604 -1.08782 5.03906
upperback -5.52227 -1.24112 1.79544
thorax -2.37926 -0.584347 -1.02209
lowerneck -9.77627 1.68704 12.6987
upperneck 43.1037 7.879 -6.66186
head 18.7564 6.22094 -3.48317
rclavicle -1.49089e-016 -9.54166e-015
rhumerus -40.7296 -0.6998 -75.1719
rradius 31.3797
rwrist 2.77788
rhand -14.814 -3.42893
rfingers 7.12502
rthumb 11.3441 -33.1021
lclavicle -1.49089e-016 -9.54166e-015
lhumerus -42.4077 4.73029 80.9176
lradius 41.7815
lwrist -13.0717
lhand -6.85881 13.801
lfingers 7.12502
lthumb 19.0066 42.8923
rfemur -16.9018 7.17575 25.5091
rtibia 22.7127
rfoot -15.1613 -10.9116
rtoes 3.45717
lfemur -30.9792 -2.16952 -14.9407
ltibia 59.105
lfoot -8.40701 8.74885
ltoes -1.75298
473
root -1.54239 15.885 1.96247 -168.886 28.947 -179.052
lowerback -6.07389 -0.955949 5.08555
upperback -5.52937 -1.07008 1.73704
thorax -2.39202 -0.503491 -1.10165
lowerneck -9.69589 1.80633 12.8267
upperneck 43.066 8.03753 -6.70329
head 18.7508 6.29115 -3.50013
rclavicle -5.35725e-014 -4.53229e-014
rhumerus -40.6488 -0.618726 -75.3309
rradius 31.5143
rwrist 2.66893
rhand -14.8186 -3.41143
rfingers 7.12502
rthumb 11.3397 -33.0848
lclavicle -5.35725e-014 -4.53229e-014
lhumerus -42.5506 4.81984 80.8067
lradius 42.2542
lwrist -12.8163
lhand -6.78213 13.7535
lfingers 7.12502
lthumb 19.0803 42.8376
rfemur -16.6731 7.53221 25.5271
rtibia 22.8139
rfoot -15.4005 -10.46
rtoes 3.63159
lfemur -31.7057 -2.57229 -14.5692
ltibia 57.8525
lfoot -8.99233 9.141
ltoes -1.69473
474
root -1.49827 15.8774 1.87464 -168.809 29.9098 -178.993
lowerback -6.05006 -0.83148 5.14002
upperback -5.52529 -0.91106 1.67088
thorax -2.39444 -0.429267 -1.19424
lowerneck -9.62561 1.934 12.9617
upperneck 43.0183 8.19846 -6.74395
head 18.7431 6.3609 -3.51761
rclavicle -3.50358e-014 1.51076e-014
rhumerus -40.5596 -0.524427 -75.5186
rradius 31.672
rwrist 2.52622
rhand -14.8317 -3.3862
rfingers 7.12502
rthumb 11.327 -33.0603
lclavicle -3.50358e-014 1.51076e-014
lhumerus -42.6977 4.91518 80.6763
lradius 42.7162
lwrist -12.5829
lhand -6.71802 13.6869
lfingers 7.12502
lthumb 19.142 42.7649
rfemur -16.4122 7.92473 25.5279
rtibia 22.875
rfoot -15.6036 -10.0164
rtoes 3.91017
lfemur -32.3586 -3.03565 -14.1407
ltibia 56.4588
lfoot -9.49063 9.47689
ltoes -1.71456
475
root -1.45464 15.871 1.78592 -168.744 30.8623 -178.942
lowerback -6.02424 -0.718103 5.19861
upperback -5.51433 -0.768232 1.59615
thorax -2.39131 -0.36364 -1.29863
lowerneck -9.55383 2.0679 13.1057
upperneck 42.9583 8.36098 -6.78488
head 18.7289 6.43072 -3.53669
rclavicle 2.17172e-014 2.62396e-014
rhumerus -40.4738 -0.414161 -75.7348
rradius 31.8585
rwrist 2.34614
rhand -14.8506 -3.36883
rfingers 7.12502
rthumb 11.3089 -33.0439
lclavicle 2.17172e-014 2.62396e-014
lhumerus -42.8534 5.01053 80.5289
lradius 43.1592
lwrist -12.3655
lhand -6.60723 13.6324
lfingers 7.12502
lthumb 19.2485 42.6998
rfemur -16.1151 8.35191 25.5076
rtibia 22.8923
rfoot -15.778 -9.58407
rtoes 4.2929
lfemur -32.9364 -3.58582 -13.6545
ltibia 54.9303
lfoot -9.89625 9.76192
ltoes -1.7556
476
root -1.41135 15.8654 1.69585 -168.695 31.7898 -178.899
lowerback -5.99577 -0.618653 5.25716
upperback -5.49956 -0.644439 1.51852
thorax -2.38626 -0.307676 -1.4067
lowerneck -9.47963 2.2013 13.2477
upperneck 42.8942 8.52181 -6.82674
head 18.7116 6.49883 -3.55624
rclavicle 4.69629e-015 2.38542e-014
rhumerus -40.4035 -0.2783 -75.9675
rradius 32.0757
rwrist 2.12303
rhand -14.8641 -3.35078
rfingers 7.12502
rthumb 11.2959 -33.0266
lclavicle 4.69629e-015 2.38542e-014
lhumerus -43.0189 5.09734 80.3805
lradius 43.5736
lwrist -12.1551
lhand -6.48061 13.5922
lfingers 7.12502
lthumb 19.3703 42.6475
rfemur -15.7747 8.79631 25.4697
rtibia 22.8643
rfoot -15.9318 -9.16782
rtoes 4.70334
lfemur -33.4392 -4.23022 -13.1083
ltibia 53.2775
lfoot -10.1986 9.97459
ltoes -1.78618
477
root -1.36857 15.8606 1.60475 -168.648 32.7157 -178.864
lowerback -5.97442 -0.531429 5.30988
upperback -5.48259 -0.537439 1.44019
thorax -2.37537 -0.259815 -1.51298
lowerneck -9.4068 2.34027 13.3958
upperneck 42.8275 8.69082 -6.87624
head 18.6962 6.56948 -3.5791
rclavicle -1.75924e-014 6.36111e-015
rhumerus -40.349 -0.0557592 -76.2608
rradius 32.3514
rwrist 1.75546
rhand -14.9583 -3.48607
rfingers 7.12502
rthumb 11.205 -33.1668
lclavicle -1.75924e-014 6.36111e-015
lhumerus -43.1946 5.20099 80.219
lradius 43.9561
lwrist -11.9575
lhand -6.32319 13.5577
lfingers 7.12502
lthumb 19.5216 42.5976
rfemur -15.4118 9.25276 25.4101
rtibia 22.7885
rfoot -16.067 -8.74602
rtoes 5.07828
lfemur -33.8796 -4.95068 -12.5037
ltibia 51.5143
lfoot -10.3895 10.1026
ltoes -1.8475
478
root -1.32613 15.8568 1.51254 -168.601 33.6299 -178.831
lowerback -5.95611 -0.454843 5.3609
upperback -5.46982 -0.443936 1.36499
thorax -2.36757 -0.218453 -1.61556
lowerneck -9.32579 2.47576 13.5398
upperneck 42.7624 8.85913 -6.9285
head 18.6799 6.63955 -3.6028
rclavicle -6.03808e-014 5.56597e-015
rhumerus -40.3253 0.238098 -76.5951
rradius 32.6818
rwrist 1.26509
rhand -15.1266 -3.75286
rfingers 7.12502
rthumb 11.0427 -33.4424
lclavicle -6.03808e-014 5.56597e-015
lhumerus -43.3839 5.30831 80.0575
lradius 44.2983
lwrist -11.7661
lhand -6.15885 13.527
lfingers 7.12502
lthumb 19.6796 42.5509
rfemur -15.0223 9.71268 25.3375
rtibia 22.6653
rfoot -16.1968 -8.32289
rtoes 5.39071
lfemur -34.2642 -5.75377 -11.8283
ltibia 49.6567
lfoot -10.4705 10.1305
ltoes -1.92571
479
root -1.28395 15.854 1.41941 -168.552 34.5354 -178.8
lowerback -5.94012 -0.390522 5.40258
upperback -5.46221 -0.365484 1.29863
thorax -2.36432 -0.184004 -1.70439
lowerneck -9.23482 2.60993 13.673
upperneck 42.6985 9.0319 -6.98222
head 18.6624 6.71015 -3.62452
rclavicle 1.33434e-014 -2.54444e-014
rhumerus -40.3132 0.582247 -76.9537
rradius 33.0379
rwrist 0.695487
rhand -15.3572 -4.1221
rfingers 7.12502
rthumb 10.8202 -33.8234
lclavicle 1.33434e-014 -2.54444e-014
lhumerus -43.5843 5.43074 79.9009
lradius 44.585
lwrist -11.6135
lhand -6.0433 13.4683
lfingers 7.12502
lthumb 19.7907 42.4807
rfemur -14.6122 10.1662 25.253
rtibia 22.4953
rfoot -16.32 -7.9001
rtoes 5.56728
lfemur -34.6017 -6.64867 -11.076
ltibia 47.722
lfoot -10.4507 10.0624
ltoes -2.01912
480
root -1.24205 15.8525 1.32521 -168.505 35.4304 -178.778
lowerback -5.93413 -0.338996 5.43431
upperback -5.45693 -0.303803 1.23585
thorax -2.35865 -0.157342 -1.78463
lowerneck -9.13631 2.74362 13.801
upperneck 42.6379 9.20975 -7.03882
head 18.6461 6.7824 -3.64583
rclavicle -9.62118e-014 -1.66979e-014
rhumerus -40.3032 0.945829 -77.3196
rradius 33.3973
rwrist 0.109941
rhand -15.6086 -4.50613
rfingers 7.12502
rthumb 10.5777 -34.2199
lclavicle -9.62118e-014 -1.66979e-014
lhumerus -43.7887 5.56532 79.7475
lradius 44.8193
lwrist -11.505
lhand -6.00482 13.3986
lfingers 7.12502
lthumb 19.8277 42.4072
rfemur -14.1797 10.6018 25.1472
rtibia 22.2769
rfoot -16.4438 -7.46341
rtoes 5.67838
lfemur -34.9001 -7.63308 -10.2531
ltibia 45.7298
lfoot -10.3445 9.89034
ltoes -2.18458
481
root -1.20063 15.8519 1.2307 -168.447 36.3181 -178.748
lowerback -5.92923 -0.30057 5.46106
upperback -5.45623 -0.258414 1.18386
thorax -2.35804 -0.138351 -1.85153
lowerneck -9.02419 2.8794 13.9276
upperneck 42.5709 9.39614 -7.1043
head 18.625 6.85681 -3.66987
rclavicle -4.78077e-014 -2.22639e-014
rhumerus -40.2825 1.29573 -77.6647
rradius 33.7332
rwrist -0.404778
rhand -15.8044 -4.81789
rfingers 7.12502
rthumb 10.3888 -34.5412
lclavicle -4.78077e-014 -2.22639e-014
lhumerus -43.9932 5.72341 79.5946
lradius 45.0074
lwrist -11.434
lhand -6.02466 13.3217
lfingers 7.12502
lthumb 19.8087 42.3323
rfemur -13.7355 11.0243 25.0357
rtibia 22.0101
rfoot -16.5566 -7.01836
rtoes 5.71921
lfemur -35.1781 -8.69071 -9.34243
ltibia 43.7024
lfoot -10.1577 9.61202
ltoes -2.44601
